<svg xmlns="http://www.w3.org/2000/svg" width="1100" height="520" viewBox="0 0 1100 520">
<rect x="0" y="0" width="100%" height="100%" fill="white"/>
<text x="70" y="24" font-family="Arial, sans-serif" font-size="18">Gas per secure bit (lower is better) — EVM/L1 snapshots</text>
<line x1="70" y1="40" x2="70" y2="340" stroke="#222" stroke-width="1"/>
<line x1="70" y1="340" x2="1080" y2="340" stroke="#222" stroke-width="1"/>
<line x1="65" y1="340.0" x2="70" y2="340.0" stroke="#222" stroke-width="1"/>
<text x="60" y="344.0" text-anchor="end" font-family="Arial  sans-serif" font-size="11">0</text>
<line x1="65" y1="280.0" x2="70" y2="280.0" stroke="#222" stroke-width="1"/>
<text x="60" y="284.0" text-anchor="end" font-family="Arial  sans-serif" font-size="11">118 424</text>
<line x1="65" y1="220.0" x2="70" y2="220.0" stroke="#222" stroke-width="1"/>
<text x="60" y="224.0" text-anchor="end" font-family="Arial  sans-serif" font-size="11">236 849</text>
<line x1="65" y1="160.0" x2="70" y2="160.0" stroke="#222" stroke-width="1"/>
<text x="60" y="164.0" text-anchor="end" font-family="Arial  sans-serif" font-size="11">355 273</text>
<line x1="65" y1="99.99999999999999" x2="70" y2="99.99999999999999" stroke="#222" stroke-width="1"/>
<text x="60" y="103.99999999999999" text-anchor="end" font-family="Arial  sans-serif" font-size="11">473 698</text>
<line x1="65" y1="40.0" x2="70" y2="40.0" stroke="#222" stroke-width="1"/>
<text x="60" y="44.0" text-anchor="end" font-family="Arial  sans-serif" font-size="11">592 123</text>
<text x="15" y="190.0" transform="rotate(-90 15 190.0)" font-family="Arial, sans-serif" font-size="12">gas/secure-bit</text>
<rect x="70.00" y="339.92" width="92.00" height="0.08" fill="#3b82f6" opacity="0.85"/>
<text x="116.00" y="356" text-anchor="middle" font-family="Arial, sans-serif" font-size="10">ECDSA-1</text>
<text x="116.00" y="333.92" text-anchor="middle" font-family="Arial  sans-serif" font-size="10">165</text>
<rect x="172.00" y="339.92" width="92.00" height="0.08" fill="#3b82f6" opacity="0.85"/>
<text x="218.00" y="356" text-anchor="middle" font-family="Arial, sans-serif" font-size="10">ECDSA-2</text>
<text x="218.00" y="333.92" text-anchor="middle" font-family="Arial  sans-serif" font-size="10">167</text>
<rect x="274.00" y="339.90" width="92.00" height="0.10" fill="#3b82f6" opacity="0.85"/>
<text x="320.00" y="356" text-anchor="middle" font-family="Arial, sans-serif" font-size="10">ECDSA-3</text>
<text x="320.00" y="333.90" text-anchor="middle" font-family="Arial  sans-serif" font-size="10">188</text>
<rect x="376.00" y="339.57" width="92.00" height="0.43" fill="#3b82f6" opacity="0.85"/>
<text x="422.00" y="356" text-anchor="middle" font-family="Arial, sans-serif" font-size="10">FALCON-4</text>
<text x="422.00" y="333.57" text-anchor="middle" font-family="Arial  sans-serif" font-size="10">853</text>
<rect x="478.00" y="334.07" width="92.00" height="5.93" fill="#3b82f6" opacity="0.85"/>
<text x="524.00" y="356" text-anchor="middle" font-family="Arial, sans-serif" font-size="10">MLDSA-5</text>
<text x="524.00" y="328.07" text-anchor="middle" font-family="Arial  sans-serif" font-size="10">11 714</text>
<rect x="580.00" y="334.07" width="92.00" height="5.93" fill="#3b82f6" opacity="0.85"/>
<text x="626.00" y="356" text-anchor="middle" font-family="Arial, sans-serif" font-size="10">MLDSA-6</text>
<text x="626.00" y="328.07" text-anchor="middle" font-family="Arial  sans-serif" font-size="10">11 714</text>
<rect x="682.00" y="319.54" width="92.00" height="20.46" fill="#3b82f6" opacity="0.85"/>
<text x="728.00" y="356" text-anchor="middle" font-family="Arial, sans-serif" font-size="10">FALCON-7</text>
<text x="728.00" y="313.54" text-anchor="middle" font-family="Arial  sans-serif" font-size="10">40 375</text>
<rect x="784.00" y="319.04" width="92.00" height="20.96" fill="#3b82f6" opacity="0.85"/>
<text x="830.00" y="356" text-anchor="middle" font-family="Arial, sans-serif" font-size="10">FALCON-8</text>
<text x="830.00" y="313.04" text-anchor="middle" font-family="Arial  sans-serif" font-size="10">41 364</text>
<rect x="886.00" y="318.30" width="92.00" height="21.70" fill="#3b82f6" opacity="0.85"/>
<text x="932.00" y="356" text-anchor="middle" font-family="Arial, sans-serif" font-size="10">FALCON-9</text>
<text x="932.00" y="312.30" text-anchor="middle" font-family="Arial  sans-serif" font-size="10">42 836</text>
<rect x="988.00" y="67.27" width="92.00" height="272.73" fill="#3b82f6" opacity="0.85"/>
<text x="1034.00" y="356" text-anchor="middle" font-family="Arial, sans-serif" font-size="10">MLDSA-10</text>
<text x="1034.00" y="61.27" text-anchor="middle" font-family="Arial  sans-serif" font-size="10">538 294</text>
<text x="70" y="380" font-family="Arial, sans-serif" font-size="12">Legend:</text>
<text x="70" y="398" font-family="Arial, sans-serif" font-size="11">ECDSA-1 → ecdsa:ecdsa_verify_ecrecover_foundry (165.047)</text>
<text x="70" y="412" font-family="Arial, sans-serif" font-size="11">ECDSA-2 → ecdsa:ecdsa_erc1271_isValidSignature_foundry (167.289)</text>
<text x="70" y="426" font-family="Arial, sans-serif" font-size="11">ECDSA-3 → ecdsa:ecdsa_verify_bytes65_foundry (187.750)</text>
<text x="70" y="440" font-family="Arial, sans-serif" font-size="11">FALCON-4 → falcon1024:qa_getUserOpHash_foundry (852.863)</text>
<text x="70" y="454" font-family="Arial, sans-serif" font-size="11">MLDSA-5 → mldsa65:preA_compute_w_fromPackedA_ntt_rho0_log (11713.703)</text>
<text x="70" y="468" font-family="Arial, sans-serif" font-size="11">MLDSA-6 → mldsa65:preA_compute_w_fromPackedA_ntt_rho1_log (11713.703)</text>
<text x="70" y="482" font-family="Arial, sans-serif" font-size="11">FALCON-7 → falcon1024:falcon_verifySignature_log (40375.215)</text>
<text x="70" y="496" font-family="Arial, sans-serif" font-size="11">FALCON-8 → falcon1024:qa_validateUserOp_userop_log (41363.797)</text>
<text x="70" y="510" font-family="Arial, sans-serif" font-size="11">FALCON-9 → falcon1024:qa_handleOps_userop_foundry (42836.234)</text>
<text x="70" y="524" font-family="Arial, sans-serif" font-size="11">MLDSA-10 → mldsa65:verify_poc_foundry (538293.844)</text>
</svg>
